<svg width="41" height="82" viewBox="0 0 41 82" fill="none" xmlns="http://www.w3.org/2000/svg">
<path d="M19.4112 80.8368C20.9316 81.3769 22.5935 80.5649 23.0816 79.0435C23.549 77.587 22.7637 76.0187 21.3082 75.5016L14.7816 73.1832C31.199 67.5653 42.2965 51.2803 40.7949 32.7689C40.2226 25.7148 37.8354 18.8664 33.8917 12.9637C30.6142 8.05829 26.321 3.87771 21.3666 0.74483C20.0113 -0.112165 18.2466 0.441094 17.5317 1.8603C16.8459 3.22177 17.3864 4.87464 18.6827 5.70265C28.1439 11.7457 34.2372 21.7867 35.152 33.064C36.5811 50.6796 24.72 65.9497 8.07759 68.994L11.9724 56.8563C12.4397 55.3998 11.6544 53.8315 10.1989 53.3144C8.67849 52.7743 7.0166 53.5862 6.5284 55.1076L0.435269 74.096L19.4112 80.8368Z" fill="#595959"/>
</svg>
