<svg width="186" height="168" xmlns="http://www.w3.org/2000/svg" xmlns:xlink="http://www.w3.org/1999/xlink" overflow="hidden"><defs><clipPath id="clip0"><path d="M936 516 1122 516 1122 684 936 684Z" fill-rule="evenodd" clip-rule="evenodd"/></clipPath></defs><g clip-path="url(#clip0)" transform="translate(-936 -516)"><path d="M1105.55 516.002C1107.39 515.954 1109.3 517.052 1111.28 519.294L1119.3 528.456C1120.94 530.269 1121.39 532.369 1120.66 534.755 1119.93 537.141 1118.53 539.24 1116.44 541.053 1114.38 542.817 1110.16 546.67 1103.79 552.612 1097.42 558.553 1090.95 566.308 1084.39 575.876 1077.83 585.444 1073.23 596.549 1070.6 609.191 1070.99 609.072 1072.93 608.595 1076.4 607.761 1079.87 606.927 1084.24 606.45 1089.51 606.331 1098.57 606.558 1105.94 609.823 1111.64 616.128 1117.33 622.432 1120.27 630.418 1120.45 640.083 1120.13 651.882 1115.76 661.894 1107.34 670.117 1098.92 678.341 1088.4 682.632 1075.75 682.989 1066.93 683.228 1058.65 679.604 1050.9 672.12 1043.15 664.635 1039.02 651.859 1038.51 633.791 1038.96 612.994 1043.03 594.867 1050.71 579.411 1058.4 563.954 1067.01 551.168 1076.54 541.053 1086.07 530.937 1093.83 523.494 1099.82 518.722 1101.8 516.956 1103.71 516.049 1105.55 516.002ZM1004.04 516.002C1005.88 515.954 1007.79 517.052 1009.77 519.294L1017.79 528.456C1019.43 530.269 1019.89 532.369 1019.16 534.755 1018.43 537.141 1017.02 539.24 1014.93 541.053 1012.87 542.817 1008.65 546.67 1002.28 552.612 995.909 558.553 989.444 566.308 982.882 575.876 976.321 585.444 971.723 596.549 969.088 609.191 969.482 609.072 971.416 608.595 974.89 607.761 978.363 606.927 982.732 606.45 987.997 606.331 997.057 606.558 1004.43 609.823 1010.13 616.128 1015.82 622.432 1018.76 630.418 1018.94 640.083 1018.62 651.882 1014.25 661.894 1005.83 670.117 997.415 678.341 986.887 682.632 974.245 682.989 965.423 683.228 957.139 679.604 949.391 672.12 941.644 664.635 937.513 651.859 937 633.791 937.449 612.994 941.517 594.867 949.203 579.411 956.889 563.954 965.498 551.168 975.03 541.053 984.562 530.937 992.323 523.494 998.311 518.722 1000.29 516.956 1002.2 516.049 1004.04 516.002Z" fill="#009249" fill-rule="evenodd"/></g></svg>